PathFileType	4	(X/Y/Z)	SUBJ51_1_walk_RCNL2025.trc
DataRate	CameraRate	NumFrames	NumMarkers	Units	OrigDataRate	OrigDataStartFrame	OrigNumFrames
100	100	7	25	mm	100	211	241
Frame#	Time	R_Shoulder			L_Shoulder			C7			J_Notch			R_Elbow			L_Elbow			R_Wrist			L_Wrist			R_Asis			L_Asis			Sacral			Thoracic			Sternum			R_Thigh_Lateral			R_Knee_Lateral			R_Shank_Lateral			R_Ankle_Lateral			R_Heel			R_Toe			L_Thigh_Lateral			L_Knee_Lateral			L_Shank_Lateral			L_Ankle_Lateral			L_Heel			L_Toe		
		X1	Y1	Z1	X2	Y2	Z2	X3	Y3	Z3	X4	Y4	Z4	X5	Y5	Z5	X6	Y6	Z6	X7	Y7	Z7	X8	Y8	Z8	X9	Y9	Z9	X10	Y10	Z10	X11	Y11	Z11	X12	Y12	Z12	X13	Y13	Z13	X14	Y14	Z14	X15	Y15	Z15	X16	Y16	Z16	X17	Y17	Z17	X18	Y18	Z18	X19	Y19	Z19	X20	Y20	Z20	X21	Y21	Z21	X22	Y22	Z22	X23	Y23	Z23	X24	Y24	Z24	X25	Y25	Z25
211	2.10000000	1591.645996	1480.367920	28.382381	1574.575562	1497.643555	-427.776917	1491.534302	1599.653564	-204.861465	1641.425537	1490.679565	-204.795639	1555.589966	1181.525635	133.818085	1490.852783	1185.484741	-518.584961	1713.404724	961.713928	136.636997	1534.101318	926.107391	-504.672272	1631.955444	1048.534790	-72.068657	1640.098633	1029.778564	-306.051971	1406.735352	1070.914062	-199.805054	1398.324951	1385.976440	-203.192963	1691.326172	1261.903931	-210.264740	1572.447144	640.829285	-7.477917	1544.121338	517.408875	-58.449596	1501.541016	298.736053	-5.872475	1454.250122	72.466110	-126.883446	1404.627197	68.940521	-186.291779	1609.778564	39.794399	-142.040726	1686.012695	660.701843	-442.496765	1699.541016	548.333984	-392.539825	1611.785767	387.627502	-429.842590	1513.876953	141.250793	-320.981171	1479.634155	163.934158	-256.439331	1645.066650	55.410404	-322.289185
212	2.11000000	1606.106934	1480.679810	27.917292	1586.551514	1496.558105	-428.413849	1505.179565	1599.069214	-205.049759	1655.023438	1490.112915	-205.404343	1575.034058	1182.915283	136.309860	1497.434448	1185.287598	-517.985535	1739.556763	968.219727	138.670063	1534.187805	924.906677	-503.868240	1644.689087	1047.231812	-72.005867	1653.856934	1029.306763	-305.752625	1420.885986	1070.473755	-200.739105	1411.954346	1385.358521	-202.984177	1705.154419	1261.564453	-210.321518	1579.063599	640.217224	-7.246744	1547.941772	517.058044	-58.005199	1503.287598	298.766937	-5.521141	1454.444092	72.687134	-126.774796	1404.611084	69.412567	-186.130493	1609.858521	39.777458	-142.033569	1704.012329	661.514771	-441.129639	1717.869995	548.507874	-391.183899	1637.777832	382.633453	-429.260071	1554.308838	130.158691	-321.967285	1518.821411	150.070419	-257.146057	1690.904907	53.770786	-325.199524
213	2.12000000	1620.593384	1480.722412	27.389738	1598.578369	1495.296753	-429.094055	1518.899170	1598.218384	-205.291016	1668.689453	1489.260742	-206.065033	1594.363770	1184.192627	138.707245	1504.116455	1185.046997	-517.449890	1765.275757	974.718536	140.521317	1534.529419	923.825958	-503.136032	1657.411987	1045.641479	-72.001114	1667.586182	1028.511963	-305.637207	1436.065430	1069.429199	-202.202469	1425.634888	1384.521606	-202.858368	1719.015503	1260.895874	-210.388626	1585.783569	639.457031	-7.028479	1551.999878	516.636597	-57.636242	1505.196411	298.787415	-5.233927	1454.636963	72.919525	-126.679588	1404.624512	69.905769	-185.962189	1609.957520	39.773994	-142.021698	1721.279663	661.793579	-439.674744	1735.518921	548.091980	-389.876465	1663.413574	377.502655	-428.684998	1595.209106	119.707855	-323.092957	1558.747192	136.759750	-257.935181	1736.486084	53.002686	-328.396240
214	2.13000000	1635.114868	1480.505981	26.790625	1610.676147	1493.869507	-429.815704	1532.695679	1597.106812	-205.592407	1682.426880	1488.130615	-206.781601	1613.550903	1185.348877	140.995865	1510.929932	1184.768677	-516.968628	1790.533569	981.177643	142.190964	1535.148438	922.848206	-502.468506	1670.121216	1043.818848	-72.041809	1681.306885	1027.404053	-305.665924	1451.857300	1067.889282	-203.999161	1439.366211	1383.471802	-202.809097	1732.897949	1259.891846	-210.481247	1592.644165	638.518250	-6.844002	1556.365723	516.122986	-57.363453	1507.294189	298.779633	-5.023558	1454.840088	73.167717	-126.609474	1404.699585	70.412056	-185.809692	1610.084106	39.786514	-142.002762	1737.746826	661.493896	-438.177704	1752.488525	547.086060	-388.638306	1688.707642	372.284180	-428.161896	1636.492798	110.073463	-324.390717	1599.267578	124.202843	-258.871948	1781.727417	53.209137	-331.716614
215	2.14000000	1649.677368	1480.038452	26.111843	1622.873657	1492.276733	-430.575409	1546.569702	1595.744873	-205.961395	1696.239502	1486.733521	-207.555435	1632.563599	1186.370361	143.162231	1517.893555	1184.449463	-516.532471	1815.298828	987.554962	143.676617	1536.065125	921.951233	-501.850891	1682.816772	1041.814209	-72.111328	1695.044922	1025.994141	-305.790833	1467.715332	1066.004761	-205.886993	1453.147705	1382.215576	-202.836060	1746.794800	1258.555420	-210.614120	1599.684570	637.389526	-6.702476	1561.099121	515.503479	-57.193100	1509.613281	298.729645	-4.889743	1455.069458	73.442818	-126.568443	1404.849243	70.939438	-185.687317	1610.246582	39.816395	-141.975372	1753.346069	660.568970	-436.682739	1768.778076	545.511597	-387.476074	1713.683716	367.035583	-427.730774	1678.062500	101.417870	-325.880280	1640.209717	112.579750	-260.010864	1826.549438	54.477478	-334.965271
216	2.15000000	1664.283691	1479.325439	25.345633	1635.206421	1490.511963	-431.370026	1560.520996	1594.145874	-206.407120	1710.130615	1485.082153	-208.384949	1651.371582	1187.243164	145.196045	1525.018433	1184.080688	-516.135376	1839.541504	993.802856	144.976917	1537.302246	921.111084	-501.266586	1695.504883	1039.670776	-72.190033	1708.831177	1024.291992	-305.961884	1483.228394	1063.895874	-207.683990	1466.979126	1380.759399	-202.944397	1760.704224	1256.899536	-210.799881	1606.942383	636.083191	-6.600458	1566.240479	514.773010	-57.118538	1512.180908	298.630554	-4.823507	1455.343628	73.763992	-126.553795	1405.074707	71.507378	-185.601089	1610.442139	39.858868	-141.939545	1768.020264	658.978699	-435.234680	1784.392822	543.408813	-386.390625	1738.370972	361.830536	-427.422546	1719.796021	93.881912	-327.554840	1681.375732	102.053177	-261.381287	1870.861450	56.872768	-337.934113
217	2.16000000	1678.933105	1478.371094	24.485228	1647.712891	1488.566650	-432.198578	1574.547974	1592.324707	-206.941223	1724.102905	1483.189697	-209.265808	1669.951416	1187.955566	147.090271	1532.314331	1183.650146	-515.773987	1863.237549	999.871307	146.094204	1538.889099	920.305664	-500.705002	1708.197998	1037.424072	-72.256996	1722.698486	1022.306946	-306.131195	1498.234985	1061.625122	-209.303543	1480.861450	1379.110474	-203.142319	1774.629761	1254.946777	-211.048126	1614.448608	634.630432	-6.527395	1571.803101	513.934814	-57.123398	1515.013184	298.486847	-4.810665	1455.677979	74.155983	-126.558395	1405.371704	72.143288	-185.550171	1610.655640	39.903835	-141.895599	1781.733521	656.702332	-433.883545	1799.357666	540.834229	-385.388458	1762.804077	356.758575	-427.256165	1761.531006	87.574989	-329.368164	1722.544189	92.765732	-262.974976	1914.546875	60.430813	-340.425629
